# xmcd
#
# Track frame offsets: 
#        183
#        16283
#        29820
#        43678
#        61805
#        79320
#        96368
#        110898
#        125493
#        143635
#
# Disc length: 2123 seconds
#
# Revision: 2
# Processed by: cddbd v1.4PL0 Copyright (c) Steve Scherf et al.
# Submitted via: ExactAudioCopy v0.90b4
#
DISCID=8d08490a
DTITLE=Barbara Mandrell - Sure Feels Good
DYEAR=1900
DGENRE=Country
TTITLE0=Just To Satisfy You
TTITLE1=You Can't Get There From Here
TTITLE2=It All Came True
TTITLE3=Hangin' On
TTITLE4=Child Support
TTITLE5=Angels Love Bad Men
TTITLE6=One Of Us Is Always Leaving
TTITLE7=Sunshine Street
TTITLE8=I'm Glad I Married You
TTITLE9=Sure Feels Good
EXTD=
EXTT0=
EXTT1=
EXTT2=
EXTT3=
EXTT4=
EXTT5=
EXTT6=
EXTT7=
EXTT8=
EXTT9=
PLAYORDER=
